<?xml version="1.0" encoding="UTF-8"?>
<svg width="1024px" height="1024px" viewBox="0 0 1024 1024" version="1.1" xmlns="http://www.w3.org/2000/svg" xmlns:xlink="http://www.w3.org/1999/xlink">
    <!-- Generator: Sketch 41 (35326) - http://www.bohemiancoding.com/sketch -->
    <title>icon</title>
    <desc>Created with Sketch.</desc>
    <defs>
        <path d="M840.240361,694.202416 C858.748279,651.193043 869,603.793731 869,554 C869,502.681152 858.110668,453.905644 838.516562,409.858033 L802.645815,430.568018 C790.691162,437.470041 775.406594,433.377173 768.50144,421.417095 L753.49856,395.431344 C746.595796,383.475406 750.689051,368.189227 762.645815,361.285986 L797.952227,340.90182 C740.534186,264.514353 653.009947,212.046179 553,201.117787 L553,239.571972 C553,253.376017 541.813189,264.566406 528.00288,264.566406 L497.99712,264.566406 C484.191592,264.566406 473,253.378454 473,239.571972 L473,201.342057 C373.249156,212.813389 286.078431,265.630876 229.0598,342.222547 L262.078645,361.285986 C274.033298,368.188008 278.131054,383.471266 271.2259,395.431344 L256.22302,421.417095 C249.320256,433.373033 234.035409,437.471259 222.078645,430.568018 L188.81744,411.364653 C169.642738,455.016842 159,503.265548 159,554 C159,603.209102 169.012403,650.079682 187.111152,692.685684 L222.077816,672.497696 C234.032927,665.595409 249.317865,669.688063 256.22302,681.648141 L271.2259,707.633892 C278.128664,719.58983 274.0273,734.88069 262.077816,741.779728 L196.794414,779.471117 L110.638491,829.213263 C56.6192268,750.673368 25,655.529217 25,553 C25,283.485042 243.485042,65 513,65 C782.514958,65 1001,283.485042 1001,553 C1001,655.760739 969.237813,751.103022 914.995223,829.745063 L800.512775,763.648591 L762.649916,741.781617 C750.692997,734.878287 746.593406,719.59397 753.49856,707.633892 L768.50144,681.648141 C775.404204,669.692203 790.692014,665.595687 802.649916,672.499585 L840.240353,694.202434 Z M661.00975,709 C674.811484,709 686,720.194996 686,734.009863 L686,803.990137 C686,817.802703 674.798913,829 661.00975,829 L363.99025,829 C350.188516,829 339,817.805004 339,803.990137 L339,734.009863 C339,720.197297 350.201087,709 363.99025,709 L661.00975,709 Z" id="path-1"></path>
        <mask id="mask-2" maskContentUnits="userSpaceOnUse" maskUnits="objectBoundingBox" x="-15" y="-15" width="1006" height="794.745063">
            <rect x="10" y="50" width="1006" height="794.745063" fill="white"></rect>
            <use xlink:href="#path-1" fill="black"></use>
        </mask>
        <path d="M840.240361,694.202416 C858.748279,651.193043 869,603.793731 869,554 C869,502.681152 858.110668,453.905644 838.516562,409.858033 L802.645815,430.568018 C790.691162,437.470041 775.406594,433.377173 768.50144,421.417095 L753.49856,395.431344 C746.595796,383.475406 750.689051,368.189227 762.645815,361.285986 L797.952227,340.90182 C740.534186,264.514353 653.009947,212.046179 553,201.117787 L553,239.571972 C553,253.376017 541.813189,264.566406 528.00288,264.566406 L497.99712,264.566406 C484.191592,264.566406 473,253.378454 473,239.571972 L473,201.342057 C373.249156,212.813389 286.078431,265.630876 229.0598,342.222547 L262.078645,361.285986 C274.033298,368.188008 278.131054,383.471266 271.2259,395.431344 L256.22302,421.417095 C249.320256,433.373033 234.035409,437.471259 222.078645,430.568018 L188.81744,411.364653 C169.642738,455.016842 159,503.265548 159,554 C159,603.209102 169.012403,650.079682 187.111152,692.685684 L222.077816,672.497696 C234.032927,665.595409 249.317865,669.688063 256.22302,681.648141 L271.2259,707.633892 C278.128664,719.58983 274.0273,734.88069 262.077816,741.779728 L196.794414,779.471117 L110.638491,829.213263 C56.6192268,750.673368 25,655.529217 25,553 C25,283.485042 243.485042,65 513,65 C782.514958,65 1001,283.485042 1001,553 C1001,655.760739 969.237813,751.103022 914.995223,829.745063 L800.512775,763.648591 L762.649916,741.781617 C750.692997,734.878287 746.593406,719.59397 753.49856,707.633892 L768.50144,681.648141 C775.404204,669.692203 790.692014,665.595687 802.649916,672.499585 L840.240353,694.202434 Z M661.00975,709 C674.811484,709 686,720.194996 686,734.009863 L686,803.990137 C686,817.802703 674.798913,829 661.00975,829 L363.99025,829 C350.188516,829 339,817.805004 339,803.990137 L339,734.009863 C339,720.197297 350.201087,709 363.99025,709 L661.00975,709 Z" id="path-3"></path>
        <mask id="mask-4" maskContentUnits="userSpaceOnUse" maskUnits="objectBoundingBox" x="0" y="0" width="976" height="764.745063" fill="white">
            <use xlink:href="#path-3"></use>
        </mask>
        <path d="M566.036337,609.629111 C551.906937,622.882935 532.90139,631 512,631 C468.369505,631 433,595.630495 433,552 C433,508.369505 468.369505,473 512,473 C533.520109,473 553.030473,481.604737 567.278209,495.561327 L754.905412,524.293371 C795.474492,530.505864 828.36223,543.132402 828.36223,552.500133 C828.36223,561.865805 795.488132,574.492313 754.905412,580.706895 L566.036337,609.629111 Z" id="path-5"></path>
        <mask id="mask-6" maskContentUnits="userSpaceOnUse" maskUnits="objectBoundingBox" x="-15" y="-15" width="425.36223" height="188">
            <rect x="418" y="458" width="425.36223" height="188" fill="white"></rect>
            <use xlink:href="#path-5" fill="black"></use>
        </mask>
        <path d="M566.036337,609.629111 C551.906937,622.882935 532.90139,631 512,631 C468.369505,631 433,595.630495 433,552 C433,508.369505 468.369505,473 512,473 C533.520109,473 553.030473,481.604737 567.278209,495.561327 L754.905412,524.293371 C795.474492,530.505864 828.36223,543.132402 828.36223,552.500133 C828.36223,561.865805 795.488132,574.492313 754.905412,580.706895 L566.036337,609.629111 Z" id="path-7"></path>
        <mask id="mask-8" maskContentUnits="userSpaceOnUse" maskUnits="objectBoundingBox" x="0" y="0" width="395.36223" height="158" fill="white">
            <use xlink:href="#path-7"></use>
        </mask>
    </defs>
    <g id="icon" stroke="none" stroke-width="1" fill="none" fill-rule="evenodd">
        <g>
            <g id="Combined-Shape-Copy">
                <use fill="#673AB7" fill-rule="evenodd" xlink:href="#path-1"></use>
                <use stroke="#E65100" mask="url(#mask-2)" stroke-width="30" xlink:href="#path-1"></use>
            </g>
            <use id="Combined-Shape-Copy" stroke="#FFFFFF" mask="url(#mask-4)" stroke-width="30" fill="#F57C00" xlink:href="#path-3"></use>
            <use id="Combined-Shape" stroke="#1A237E" mask="url(#mask-6)" stroke-width="30" xlink:href="#path-5"></use>
            <use id="Combined-Shape" stroke="#FFFFFF" mask="url(#mask-8)" stroke-width="30" fill="#1A237E" xlink:href="#path-7"></use>
        </g>
    </g>
</svg>